# xmcd
#
# Track frame offsets: 
#        182
#        13957
#        29122
#
# Disc length: 644 seconds
#
# Revision: 0
# Processed by: cddbd v1.5.2PL0 Copyright (c) Steve Scherf et al.
# Submitted via: ExactAudioCopy v1.1
#
DISCID=24028203
DTITLE=Bellamy's - I Would Always Love You
DYEAR=2001
DGENRE=Country
TTITLE0=I Would Always Love You
TTITLE1=You Drive Me Crazy
TTITLE2=No More Lonely Nights
EXTD=
EXTT0=
EXTT1=
EXTT2=
PLAYORDER=
